<mxfile host="app.diagrams.net" agent="Mozilla/5.0 (Windows NT 10.0; Win64; x64) AppleWebKit/537.36 (KHTML, like Gecko) Chrome/132.0.0.0 Safari/537.36" version="26.0.14">
  <diagram id="C5RBs43oDa-KdzZeNtuy" name="Page-1">
    <mxGraphModel dx="1051" dy="522" grid="1" gridSize="10" guides="1" tooltips="1" connect="1" arrows="1" fold="1" page="1" pageScale="1" pageWidth="827" pageHeight="1169" math="0" shadow="0">
      <root>
        <mxCell id="WIyWlLk6GJQsqaUBKTNV-0" />
        <mxCell id="WIyWlLk6GJQsqaUBKTNV-1" parent="WIyWlLk6GJQsqaUBKTNV-0" />
        <mxCell id="WIyWlLk6GJQsqaUBKTNV-2" value="" style="rounded=0;html=1;jettySize=auto;orthogonalLoop=1;fontSize=11;endArrow=block;endFill=0;endSize=8;strokeWidth=1;shadow=0;labelBackgroundColor=none;edgeStyle=orthogonalEdgeStyle;" parent="WIyWlLk6GJQsqaUBKTNV-1" source="WIyWlLk6GJQsqaUBKTNV-3" target="WIyWlLk6GJQsqaUBKTNV-6" edge="1">
          <mxGeometry relative="1" as="geometry" />
        </mxCell>
        <mxCell id="WIyWlLk6GJQsqaUBKTNV-3" value="Beginning of process of enrollment" style="rounded=1;whiteSpace=wrap;html=1;fontSize=12;glass=0;strokeWidth=1;shadow=0;" parent="WIyWlLk6GJQsqaUBKTNV-1" vertex="1">
          <mxGeometry x="160" y="80" width="120" height="40" as="geometry" />
        </mxCell>
        <mxCell id="WIyWlLk6GJQsqaUBKTNV-4" value="Yes" style="rounded=0;html=1;jettySize=auto;orthogonalLoop=1;fontSize=11;endArrow=block;endFill=0;endSize=8;strokeWidth=1;shadow=0;labelBackgroundColor=none;edgeStyle=orthogonalEdgeStyle;entryX=0.5;entryY=0;entryDx=0;entryDy=0;" parent="WIyWlLk6GJQsqaUBKTNV-1" source="WIyWlLk6GJQsqaUBKTNV-6" target="F3nc7s77Ge7_v3JI056o-2" edge="1">
          <mxGeometry x="0.0122" y="10" relative="1" as="geometry">
            <mxPoint y="-1" as="offset" />
            <mxPoint x="220" y="290" as="targetPoint" />
          </mxGeometry>
        </mxCell>
        <mxCell id="WIyWlLk6GJQsqaUBKTNV-5" value="No" style="edgeStyle=orthogonalEdgeStyle;rounded=0;html=1;jettySize=auto;orthogonalLoop=1;fontSize=11;endArrow=block;endFill=0;endSize=8;strokeWidth=1;shadow=0;labelBackgroundColor=none;" parent="WIyWlLk6GJQsqaUBKTNV-1" source="WIyWlLk6GJQsqaUBKTNV-6" target="WIyWlLk6GJQsqaUBKTNV-7" edge="1">
          <mxGeometry y="10" relative="1" as="geometry">
            <mxPoint as="offset" />
          </mxGeometry>
        </mxCell>
        <mxCell id="WIyWlLk6GJQsqaUBKTNV-6" value="&lt;font style=&quot;font-size: 11px;&quot;&gt;Do you have an account&lt;/font&gt;" style="rhombus;whiteSpace=wrap;html=1;shadow=0;fontFamily=Helvetica;fontSize=12;align=center;strokeWidth=1;spacing=6;spacingTop=-4;" parent="WIyWlLk6GJQsqaUBKTNV-1" vertex="1">
          <mxGeometry x="170" y="170" width="100" height="80" as="geometry" />
        </mxCell>
        <mxCell id="WIyWlLk6GJQsqaUBKTNV-7" value="Break the process" style="rounded=1;whiteSpace=wrap;html=1;fontSize=12;glass=0;strokeWidth=1;shadow=0;" parent="WIyWlLk6GJQsqaUBKTNV-1" vertex="1">
          <mxGeometry x="320" y="190" width="120" height="40" as="geometry" />
        </mxCell>
        <mxCell id="WIyWlLk6GJQsqaUBKTNV-8" value="" style="rounded=0;html=1;jettySize=auto;orthogonalLoop=1;fontSize=11;endArrow=block;endFill=0;endSize=8;strokeWidth=1;shadow=0;labelBackgroundColor=none;edgeStyle=orthogonalEdgeStyle;" parent="WIyWlLk6GJQsqaUBKTNV-1" edge="1">
          <mxGeometry x="0.3333" y="20" relative="1" as="geometry">
            <mxPoint as="offset" />
            <mxPoint x="220" y="340" as="sourcePoint" />
            <mxPoint x="220" y="400" as="targetPoint" />
          </mxGeometry>
        </mxCell>
        <mxCell id="F3nc7s77Ge7_v3JI056o-2" value="input credentials&lt;div&gt;&lt;br&gt;&lt;/div&gt;" style="shape=parallelogram;perimeter=parallelogramPerimeter;whiteSpace=wrap;html=1;fixedSize=1;" vertex="1" parent="WIyWlLk6GJQsqaUBKTNV-1">
          <mxGeometry x="160" y="295" width="120" height="60" as="geometry" />
        </mxCell>
        <mxCell id="F3nc7s77Ge7_v3JI056o-6" style="edgeStyle=orthogonalEdgeStyle;rounded=0;orthogonalLoop=1;jettySize=auto;html=1;exitX=1;exitY=0.5;exitDx=0;exitDy=0;entryX=1;entryY=0;entryDx=0;entryDy=0;" edge="1" parent="WIyWlLk6GJQsqaUBKTNV-1" source="F3nc7s77Ge7_v3JI056o-5" target="F3nc7s77Ge7_v3JI056o-2">
          <mxGeometry relative="1" as="geometry">
            <Array as="points">
              <mxPoint x="320" y="440" />
              <mxPoint x="320" y="295" />
            </Array>
          </mxGeometry>
        </mxCell>
        <mxCell id="F3nc7s77Ge7_v3JI056o-11" style="edgeStyle=orthogonalEdgeStyle;rounded=0;orthogonalLoop=1;jettySize=auto;html=1;exitX=0.5;exitY=1;exitDx=0;exitDy=0;entryX=0.5;entryY=0;entryDx=0;entryDy=0;" edge="1" parent="WIyWlLk6GJQsqaUBKTNV-1" source="F3nc7s77Ge7_v3JI056o-5" target="F3nc7s77Ge7_v3JI056o-10">
          <mxGeometry relative="1" as="geometry" />
        </mxCell>
        <mxCell id="F3nc7s77Ge7_v3JI056o-5" value="are they valid?" style="rhombus;whiteSpace=wrap;html=1;" vertex="1" parent="WIyWlLk6GJQsqaUBKTNV-1">
          <mxGeometry x="180" y="400" width="80" height="80" as="geometry" />
        </mxCell>
        <mxCell id="F3nc7s77Ge7_v3JI056o-7" value="no&lt;div&gt;&lt;br&gt;&lt;/div&gt;" style="text;html=1;align=center;verticalAlign=middle;resizable=0;points=[];autosize=1;strokeColor=none;fillColor=none;" vertex="1" parent="WIyWlLk6GJQsqaUBKTNV-1">
          <mxGeometry x="320" y="353" width="40" height="40" as="geometry" />
        </mxCell>
        <mxCell id="F3nc7s77Ge7_v3JI056o-14" style="edgeStyle=orthogonalEdgeStyle;rounded=0;orthogonalLoop=1;jettySize=auto;html=1;exitX=0.5;exitY=1;exitDx=0;exitDy=0;entryX=0.5;entryY=0;entryDx=0;entryDy=0;" edge="1" parent="WIyWlLk6GJQsqaUBKTNV-1" source="F3nc7s77Ge7_v3JI056o-10" target="F3nc7s77Ge7_v3JI056o-13">
          <mxGeometry relative="1" as="geometry" />
        </mxCell>
        <mxCell id="F3nc7s77Ge7_v3JI056o-10" value="log in to the platform" style="rounded=0;whiteSpace=wrap;html=1;" vertex="1" parent="WIyWlLk6GJQsqaUBKTNV-1">
          <mxGeometry x="160" y="540" width="120" height="60" as="geometry" />
        </mxCell>
        <mxCell id="F3nc7s77Ge7_v3JI056o-12" value="yes" style="text;html=1;align=center;verticalAlign=middle;resizable=0;points=[];autosize=1;strokeColor=none;fillColor=none;" vertex="1" parent="WIyWlLk6GJQsqaUBKTNV-1">
          <mxGeometry x="220" y="490" width="40" height="30" as="geometry" />
        </mxCell>
        <mxCell id="F3nc7s77Ge7_v3JI056o-19" style="edgeStyle=orthogonalEdgeStyle;rounded=0;orthogonalLoop=1;jettySize=auto;html=1;exitX=1;exitY=0.5;exitDx=0;exitDy=0;entryX=0;entryY=0.5;entryDx=0;entryDy=0;" edge="1" parent="WIyWlLk6GJQsqaUBKTNV-1" source="F3nc7s77Ge7_v3JI056o-13" target="F3nc7s77Ge7_v3JI056o-16">
          <mxGeometry relative="1" as="geometry" />
        </mxCell>
        <mxCell id="F3nc7s77Ge7_v3JI056o-22" style="edgeStyle=orthogonalEdgeStyle;rounded=0;orthogonalLoop=1;jettySize=auto;html=1;exitX=0.5;exitY=1;exitDx=0;exitDy=0;entryX=0.5;entryY=0;entryDx=0;entryDy=0;" edge="1" parent="WIyWlLk6GJQsqaUBKTNV-1" source="F3nc7s77Ge7_v3JI056o-13" target="F3nc7s77Ge7_v3JI056o-21">
          <mxGeometry relative="1" as="geometry" />
        </mxCell>
        <mxCell id="F3nc7s77Ge7_v3JI056o-13" value="is the option for enrollment available?" style="rhombus;whiteSpace=wrap;html=1;" vertex="1" parent="WIyWlLk6GJQsqaUBKTNV-1">
          <mxGeometry x="180" y="660" width="80" height="80" as="geometry" />
        </mxCell>
        <mxCell id="F3nc7s77Ge7_v3JI056o-16" value="end process" style="rounded=1;whiteSpace=wrap;html=1;" vertex="1" parent="WIyWlLk6GJQsqaUBKTNV-1">
          <mxGeometry x="308" y="680" width="106" height="40" as="geometry" />
        </mxCell>
        <mxCell id="F3nc7s77Ge7_v3JI056o-20" value="no&lt;div&gt;&lt;br&gt;&lt;/div&gt;" style="text;html=1;align=center;verticalAlign=middle;resizable=0;points=[];autosize=1;strokeColor=none;fillColor=none;" vertex="1" parent="WIyWlLk6GJQsqaUBKTNV-1">
          <mxGeometry x="268" y="673" width="40" height="40" as="geometry" />
        </mxCell>
        <mxCell id="F3nc7s77Ge7_v3JI056o-25" style="edgeStyle=orthogonalEdgeStyle;rounded=0;orthogonalLoop=1;jettySize=auto;html=1;exitX=0.5;exitY=1;exitDx=0;exitDy=0;entryX=0.5;entryY=0;entryDx=0;entryDy=0;" edge="1" parent="WIyWlLk6GJQsqaUBKTNV-1" source="F3nc7s77Ge7_v3JI056o-21" target="F3nc7s77Ge7_v3JI056o-24">
          <mxGeometry relative="1" as="geometry" />
        </mxCell>
        <mxCell id="F3nc7s77Ge7_v3JI056o-21" value="choose the semester to enroll" style="rectangle;whiteSpace=wrap;html=1;" vertex="1" parent="WIyWlLk6GJQsqaUBKTNV-1">
          <mxGeometry x="160" y="770" width="120" height="50" as="geometry" />
        </mxCell>
        <mxCell id="F3nc7s77Ge7_v3JI056o-23" value="yes&lt;div&gt;&lt;br&gt;&lt;/div&gt;" style="text;html=1;align=center;verticalAlign=middle;resizable=0;points=[];autosize=1;strokeColor=none;fillColor=none;" vertex="1" parent="WIyWlLk6GJQsqaUBKTNV-1">
          <mxGeometry x="220" y="733" width="40" height="40" as="geometry" />
        </mxCell>
        <mxCell id="F3nc7s77Ge7_v3JI056o-28" style="edgeStyle=orthogonalEdgeStyle;rounded=0;orthogonalLoop=1;jettySize=auto;html=1;exitX=1;exitY=0.5;exitDx=0;exitDy=0;entryX=1;entryY=0.25;entryDx=0;entryDy=0;" edge="1" parent="WIyWlLk6GJQsqaUBKTNV-1" source="F3nc7s77Ge7_v3JI056o-24" target="F3nc7s77Ge7_v3JI056o-21">
          <mxGeometry relative="1" as="geometry">
            <mxPoint x="311" y="910" as="targetPoint" />
          </mxGeometry>
        </mxCell>
        <mxCell id="F3nc7s77Ge7_v3JI056o-32" style="edgeStyle=orthogonalEdgeStyle;rounded=0;orthogonalLoop=1;jettySize=auto;html=1;exitX=0.5;exitY=1;exitDx=0;exitDy=0;entryX=0.5;entryY=0;entryDx=0;entryDy=0;" edge="1" parent="WIyWlLk6GJQsqaUBKTNV-1" source="F3nc7s77Ge7_v3JI056o-24" target="F3nc7s77Ge7_v3JI056o-31">
          <mxGeometry relative="1" as="geometry" />
        </mxCell>
        <mxCell id="F3nc7s77Ge7_v3JI056o-24" value="&lt;font style=&quot;font-size: 11px;&quot;&gt;is the chosen semester valid for this user?&lt;/font&gt;&lt;div&gt;&lt;br&gt;&lt;/div&gt;" style="rhombus;whiteSpace=wrap;html=1;" vertex="1" parent="WIyWlLk6GJQsqaUBKTNV-1">
          <mxGeometry x="160" y="860" width="120" height="100" as="geometry" />
        </mxCell>
        <mxCell id="F3nc7s77Ge7_v3JI056o-29" value="no" style="text;html=1;align=center;verticalAlign=middle;resizable=0;points=[];autosize=1;strokeColor=none;fillColor=none;" vertex="1" parent="WIyWlLk6GJQsqaUBKTNV-1">
          <mxGeometry x="290" y="840" width="40" height="30" as="geometry" />
        </mxCell>
        <mxCell id="F3nc7s77Ge7_v3JI056o-35" style="edgeStyle=orthogonalEdgeStyle;rounded=0;orthogonalLoop=1;jettySize=auto;html=1;exitX=0.5;exitY=1;exitDx=0;exitDy=0;" edge="1" parent="WIyWlLk6GJQsqaUBKTNV-1" source="F3nc7s77Ge7_v3JI056o-31" target="F3nc7s77Ge7_v3JI056o-34">
          <mxGeometry relative="1" as="geometry" />
        </mxCell>
        <mxCell id="F3nc7s77Ge7_v3JI056o-31" value="choose subjects for the enrolled semester" style="rectangle;whiteSpace=wrap;html=1;" vertex="1" parent="WIyWlLk6GJQsqaUBKTNV-1">
          <mxGeometry x="160" y="1010" width="120" height="60" as="geometry" />
        </mxCell>
        <mxCell id="F3nc7s77Ge7_v3JI056o-33" value="yes&lt;div&gt;&lt;br&gt;&lt;/div&gt;" style="text;html=1;align=center;verticalAlign=middle;resizable=0;points=[];autosize=1;strokeColor=none;fillColor=none;" vertex="1" parent="WIyWlLk6GJQsqaUBKTNV-1">
          <mxGeometry x="220" y="960" width="40" height="40" as="geometry" />
        </mxCell>
        <mxCell id="F3nc7s77Ge7_v3JI056o-46" style="edgeStyle=orthogonalEdgeStyle;rounded=0;orthogonalLoop=1;jettySize=auto;html=1;exitX=0.5;exitY=1;exitDx=0;exitDy=0;entryX=0.5;entryY=0;entryDx=0;entryDy=0;" edge="1" parent="WIyWlLk6GJQsqaUBKTNV-1" source="F3nc7s77Ge7_v3JI056o-34" target="F3nc7s77Ge7_v3JI056o-45">
          <mxGeometry relative="1" as="geometry" />
        </mxCell>
        <mxCell id="F3nc7s77Ge7_v3JI056o-34" value="&lt;span style=&quot;font-size: 11px;&quot;&gt;is the criteria for all the subjects met&lt;/span&gt;" style="rhombus;whiteSpace=wrap;html=1;" vertex="1" parent="WIyWlLk6GJQsqaUBKTNV-1">
          <mxGeometry x="160" y="1089" width="120" height="121" as="geometry" />
        </mxCell>
        <mxCell id="F3nc7s77Ge7_v3JI056o-42" style="edgeStyle=orthogonalEdgeStyle;rounded=0;orthogonalLoop=1;jettySize=auto;html=1;exitX=1;exitY=0.5;exitDx=0;exitDy=0;entryX=1.008;entryY=0.14;entryDx=0;entryDy=0;entryPerimeter=0;" edge="1" parent="WIyWlLk6GJQsqaUBKTNV-1" source="F3nc7s77Ge7_v3JI056o-34" target="F3nc7s77Ge7_v3JI056o-31">
          <mxGeometry relative="1" as="geometry" />
        </mxCell>
        <mxCell id="F3nc7s77Ge7_v3JI056o-43" value="no" style="text;html=1;align=center;verticalAlign=middle;resizable=0;points=[];autosize=1;strokeColor=none;fillColor=none;" vertex="1" parent="WIyWlLk6GJQsqaUBKTNV-1">
          <mxGeometry x="300" y="1098" width="40" height="30" as="geometry" />
        </mxCell>
        <mxCell id="F3nc7s77Ge7_v3JI056o-49" style="edgeStyle=orthogonalEdgeStyle;rounded=0;orthogonalLoop=1;jettySize=auto;html=1;exitX=0.5;exitY=1;exitDx=0;exitDy=0;entryX=0.5;entryY=0;entryDx=0;entryDy=0;" edge="1" parent="WIyWlLk6GJQsqaUBKTNV-1" source="F3nc7s77Ge7_v3JI056o-45" target="F3nc7s77Ge7_v3JI056o-48">
          <mxGeometry relative="1" as="geometry" />
        </mxCell>
        <mxCell id="F3nc7s77Ge7_v3JI056o-53" style="edgeStyle=orthogonalEdgeStyle;rounded=0;orthogonalLoop=1;jettySize=auto;html=1;exitX=1;exitY=0.5;exitDx=0;exitDy=0;entryX=0;entryY=0.5;entryDx=0;entryDy=0;" edge="1" parent="WIyWlLk6GJQsqaUBKTNV-1" source="F3nc7s77Ge7_v3JI056o-45" target="F3nc7s77Ge7_v3JI056o-52">
          <mxGeometry relative="1" as="geometry" />
        </mxCell>
        <mxCell id="F3nc7s77Ge7_v3JI056o-45" value="is the sum of credits below 35" style="rhombus;whiteSpace=wrap;html=1;" vertex="1" parent="WIyWlLk6GJQsqaUBKTNV-1">
          <mxGeometry x="165" y="1260" width="110" height="110" as="geometry" />
        </mxCell>
        <mxCell id="F3nc7s77Ge7_v3JI056o-47" value="yes" style="text;html=1;align=center;verticalAlign=middle;resizable=0;points=[];autosize=1;strokeColor=none;fillColor=none;" vertex="1" parent="WIyWlLk6GJQsqaUBKTNV-1">
          <mxGeometry x="220" y="1218" width="40" height="30" as="geometry" />
        </mxCell>
        <mxCell id="F3nc7s77Ge7_v3JI056o-56" style="edgeStyle=orthogonalEdgeStyle;rounded=0;orthogonalLoop=1;jettySize=auto;html=1;exitX=0.5;exitY=1;exitDx=0;exitDy=0;" edge="1" parent="WIyWlLk6GJQsqaUBKTNV-1" source="F3nc7s77Ge7_v3JI056o-48" target="F3nc7s77Ge7_v3JI056o-55">
          <mxGeometry relative="1" as="geometry" />
        </mxCell>
        <mxCell id="F3nc7s77Ge7_v3JI056o-48" value="enroll the semester" style="rectangle;whiteSpace=wrap;html=1;" vertex="1" parent="WIyWlLk6GJQsqaUBKTNV-1">
          <mxGeometry x="160" y="1410" width="120" height="60" as="geometry" />
        </mxCell>
        <mxCell id="F3nc7s77Ge7_v3JI056o-50" value="yes" style="text;html=1;align=center;verticalAlign=middle;resizable=0;points=[];autosize=1;strokeColor=none;fillColor=none;" vertex="1" parent="WIyWlLk6GJQsqaUBKTNV-1">
          <mxGeometry x="220" y="1370" width="40" height="30" as="geometry" />
        </mxCell>
        <mxCell id="F3nc7s77Ge7_v3JI056o-54" style="edgeStyle=orthogonalEdgeStyle;rounded=0;orthogonalLoop=1;jettySize=auto;html=1;exitX=0.5;exitY=1;exitDx=0;exitDy=0;entryX=1;entryY=0.5;entryDx=0;entryDy=0;" edge="1" parent="WIyWlLk6GJQsqaUBKTNV-1" source="F3nc7s77Ge7_v3JI056o-52" target="F3nc7s77Ge7_v3JI056o-48">
          <mxGeometry relative="1" as="geometry" />
        </mxCell>
        <mxCell id="F3nc7s77Ge7_v3JI056o-52" value="give warning for enrolling credits &amp;gt; limited credits" style="rounded=0;whiteSpace=wrap;html=1;" vertex="1" parent="WIyWlLk6GJQsqaUBKTNV-1">
          <mxGeometry x="330" y="1285" width="120" height="60" as="geometry" />
        </mxCell>
        <mxCell id="F3nc7s77Ge7_v3JI056o-58" value="" style="edgeStyle=orthogonalEdgeStyle;rounded=0;orthogonalLoop=1;jettySize=auto;html=1;" edge="1" parent="WIyWlLk6GJQsqaUBKTNV-1" source="F3nc7s77Ge7_v3JI056o-55" target="F3nc7s77Ge7_v3JI056o-57">
          <mxGeometry relative="1" as="geometry" />
        </mxCell>
        <mxCell id="F3nc7s77Ge7_v3JI056o-55" value="wait for confirmation from the student enrolling department&amp;nbsp;" style="rounded=0;whiteSpace=wrap;html=1;" vertex="1" parent="WIyWlLk6GJQsqaUBKTNV-1">
          <mxGeometry x="160" y="1520" width="120" height="60" as="geometry" />
        </mxCell>
        <mxCell id="F3nc7s77Ge7_v3JI056o-63" style="edgeStyle=orthogonalEdgeStyle;rounded=0;orthogonalLoop=1;jettySize=auto;html=1;exitX=0.5;exitY=1;exitDx=0;exitDy=0;" edge="1" parent="WIyWlLk6GJQsqaUBKTNV-1" source="F3nc7s77Ge7_v3JI056o-57" target="F3nc7s77Ge7_v3JI056o-62">
          <mxGeometry relative="1" as="geometry" />
        </mxCell>
        <mxCell id="F3nc7s77Ge7_v3JI056o-65" style="edgeStyle=orthogonalEdgeStyle;rounded=0;orthogonalLoop=1;jettySize=auto;html=1;exitX=0;exitY=0.5;exitDx=0;exitDy=0;entryX=0;entryY=0.25;entryDx=0;entryDy=0;" edge="1" parent="WIyWlLk6GJQsqaUBKTNV-1" source="F3nc7s77Ge7_v3JI056o-57" target="F3nc7s77Ge7_v3JI056o-31">
          <mxGeometry relative="1" as="geometry" />
        </mxCell>
        <mxCell id="F3nc7s77Ge7_v3JI056o-57" value="has the enrollment been confirmed" style="rhombus;whiteSpace=wrap;html=1;" vertex="1" parent="WIyWlLk6GJQsqaUBKTNV-1">
          <mxGeometry x="170" y="1620" width="100" height="90" as="geometry" />
        </mxCell>
        <mxCell id="F3nc7s77Ge7_v3JI056o-68" style="edgeStyle=orthogonalEdgeStyle;rounded=0;orthogonalLoop=1;jettySize=auto;html=1;exitX=0.5;exitY=1;exitDx=0;exitDy=0;" edge="1" parent="WIyWlLk6GJQsqaUBKTNV-1" source="F3nc7s77Ge7_v3JI056o-62" target="F3nc7s77Ge7_v3JI056o-67">
          <mxGeometry relative="1" as="geometry" />
        </mxCell>
        <mxCell id="F3nc7s77Ge7_v3JI056o-62" value="give online payment option" style="rounded=0;whiteSpace=wrap;html=1;" vertex="1" parent="WIyWlLk6GJQsqaUBKTNV-1">
          <mxGeometry x="160" y="1754" width="120" height="60" as="geometry" />
        </mxCell>
        <mxCell id="F3nc7s77Ge7_v3JI056o-64" value="yes&lt;div&gt;&lt;br&gt;&lt;/div&gt;" style="text;html=1;align=center;verticalAlign=middle;resizable=0;points=[];autosize=1;strokeColor=none;fillColor=none;" vertex="1" parent="WIyWlLk6GJQsqaUBKTNV-1">
          <mxGeometry x="220" y="1714" width="40" height="40" as="geometry" />
        </mxCell>
        <mxCell id="F3nc7s77Ge7_v3JI056o-66" value="no" style="text;html=1;align=center;verticalAlign=middle;resizable=0;points=[];autosize=1;strokeColor=none;fillColor=none;" vertex="1" parent="WIyWlLk6GJQsqaUBKTNV-1">
          <mxGeometry x="100" y="1478" width="40" height="30" as="geometry" />
        </mxCell>
        <mxCell id="F3nc7s77Ge7_v3JI056o-67" value="finish the process of enrollment" style="rounded=1;whiteSpace=wrap;html=1;" vertex="1" parent="WIyWlLk6GJQsqaUBKTNV-1">
          <mxGeometry x="160" y="1860" width="120" height="60" as="geometry" />
        </mxCell>
        <mxCell id="F3nc7s77Ge7_v3JI056o-69" value="no" style="text;html=1;align=center;verticalAlign=middle;resizable=0;points=[];autosize=1;strokeColor=none;fillColor=none;" vertex="1" parent="WIyWlLk6GJQsqaUBKTNV-1">
          <mxGeometry x="280" y="1278" width="40" height="30" as="geometry" />
        </mxCell>
      </root>
    </mxGraphModel>
  </diagram>
</mxfile>
